<mxfile host="app.diagrams.net" agent="Mozilla/5.0 (Windows NT 10.0; Win64; x64) AppleWebKit/537.36 (KHTML, like Gecko) Chrome/126.0.0.0 Safari/537.36 OPR/112.0.0.0" version="24.7.12">
  <diagram name="Página-1" id="2cXjhtr7lLlxmYcNSW9r">
    <mxGraphModel grid="1" page="1" gridSize="10" guides="1" tooltips="1" connect="1" arrows="1" fold="1" pageScale="1" pageWidth="827" pageHeight="1169" math="0" shadow="0">
      <root>
        <mxCell id="0" />
        <mxCell id="1" parent="0" />
        <mxCell id="RwJon9xPvFPWPjA8Fi1b-1" style="edgeStyle=orthogonalEdgeStyle;rounded=0;orthogonalLoop=1;jettySize=auto;html=1;exitX=0;exitY=0;exitDx=105;exitDy=0;exitPerimeter=0;entryX=0;entryY=0;entryDx=115;entryDy=330;entryPerimeter=0;" edge="1" parent="1" source="RwJon9xPvFPWPjA8Fi1b-2" target="RwJon9xPvFPWPjA8Fi1b-3">
          <mxGeometry relative="1" as="geometry" />
        </mxCell>
        <mxCell id="RwJon9xPvFPWPjA8Fi1b-2" value="APP MOVIL" style="verticalAlign=top;align=left;spacingTop=8;spacingLeft=2;spacingRight=12;shape=cube;size=10;direction=south;fontStyle=4;html=1;rounded=0;shadow=0;comic=0;labelBackgroundColor=none;strokeWidth=1;fontFamily=Verdana;fontSize=12" vertex="1" parent="1">
          <mxGeometry x="60" y="80" width="330" height="220" as="geometry" />
        </mxCell>
        <mxCell id="RwJon9xPvFPWPjA8Fi1b-3" value="ADMIN" style="verticalAlign=top;align=left;spacingTop=8;spacingLeft=2;spacingRight=12;shape=cube;size=10;direction=south;fontStyle=4;html=1;rounded=0;shadow=0;comic=0;labelBackgroundColor=none;strokeWidth=1;fontFamily=Verdana;fontSize=12" vertex="1" parent="1">
          <mxGeometry x="540" y="-100" width="330" height="220" as="geometry" />
        </mxCell>
        <mxCell id="RwJon9xPvFPWPjA8Fi1b-4" value="«interface»&lt;br&gt;Gestión de usuarios" style="html=1;rounded=0;shadow=0;comic=0;labelBackgroundColor=none;strokeWidth=1;fontFamily=Verdana;fontSize=12;align=center;" vertex="1" parent="1">
          <mxGeometry x="570" y="-60" width="110" height="50" as="geometry" />
        </mxCell>
        <mxCell id="RwJon9xPvFPWPjA8Fi1b-5" value="«Componentes»&lt;br&gt;Inicio De Sesion" style="html=1;dropTarget=0;whiteSpace=wrap;" vertex="1" parent="1">
          <mxGeometry x="120" y="145" width="180" height="90" as="geometry" />
        </mxCell>
        <mxCell id="RwJon9xPvFPWPjA8Fi1b-6" value="" style="shape=module;jettyWidth=8;jettyHeight=4;" vertex="1" parent="RwJon9xPvFPWPjA8Fi1b-5">
          <mxGeometry x="1" width="20" height="20" relative="1" as="geometry">
            <mxPoint x="-27" y="7" as="offset" />
          </mxGeometry>
        </mxCell>
        <mxCell id="RwJon9xPvFPWPjA8Fi1b-7" style="edgeStyle=orthogonalEdgeStyle;rounded=0;orthogonalLoop=1;jettySize=auto;html=1;exitX=0.5;exitY=1;exitDx=0;exitDy=0;entryX=0.5;entryY=1;entryDx=0;entryDy=0;dashed=1;" edge="1" parent="1" source="RwJon9xPvFPWPjA8Fi1b-8" target="RwJon9xPvFPWPjA8Fi1b-4">
          <mxGeometry relative="1" as="geometry" />
        </mxCell>
        <mxCell id="RwJon9xPvFPWPjA8Fi1b-8" value="«Componentes»&lt;br&gt;Usuario ingresados en el sistema" style="html=1;dropTarget=0;whiteSpace=wrap;" vertex="1" parent="1">
          <mxGeometry x="690" y="15" width="140" height="50" as="geometry" />
        </mxCell>
        <mxCell id="RwJon9xPvFPWPjA8Fi1b-9" value="" style="shape=module;jettyWidth=8;jettyHeight=4;" vertex="1" parent="RwJon9xPvFPWPjA8Fi1b-8">
          <mxGeometry x="1" width="20" height="20" relative="1" as="geometry">
            <mxPoint x="-27" y="7" as="offset" />
          </mxGeometry>
        </mxCell>
        <mxCell id="RwJon9xPvFPWPjA8Fi1b-10" value="VECINO" style="verticalAlign=top;align=left;spacingTop=8;spacingLeft=2;spacingRight=12;shape=cube;size=10;direction=south;fontStyle=4;html=1;rounded=0;shadow=0;comic=0;labelBackgroundColor=none;strokeWidth=1;fontFamily=Verdana;fontSize=12" vertex="1" parent="1">
          <mxGeometry x="550" y="485" width="330" height="345" as="geometry" />
        </mxCell>
        <mxCell id="RwJon9xPvFPWPjA8Fi1b-11" value="«interface»&lt;br&gt;Inicia Reclamo o&amp;nbsp;&lt;div&gt;Queja&lt;/div&gt;" style="html=1;rounded=0;shadow=0;comic=0;labelBackgroundColor=none;strokeWidth=1;fontFamily=Verdana;fontSize=12;align=center;" vertex="1" parent="1">
          <mxGeometry x="590" y="525" width="110" height="50" as="geometry" />
        </mxCell>
        <mxCell id="RwJon9xPvFPWPjA8Fi1b-12" style="edgeStyle=orthogonalEdgeStyle;rounded=0;orthogonalLoop=1;jettySize=auto;html=1;exitX=0;exitY=0.5;exitDx=0;exitDy=0;entryX=0.5;entryY=1;entryDx=0;entryDy=0;dashed=1;" edge="1" parent="1" source="RwJon9xPvFPWPjA8Fi1b-13" target="RwJon9xPvFPWPjA8Fi1b-11">
          <mxGeometry relative="1" as="geometry" />
        </mxCell>
        <mxCell id="RwJon9xPvFPWPjA8Fi1b-13" value="«Componentes»&lt;br&gt;Petición Reclamo o Queja" style="html=1;dropTarget=0;whiteSpace=wrap;" vertex="1" parent="1">
          <mxGeometry x="700" y="605" width="140" height="50" as="geometry" />
        </mxCell>
        <mxCell id="RwJon9xPvFPWPjA8Fi1b-14" value="" style="shape=module;jettyWidth=8;jettyHeight=4;" vertex="1" parent="RwJon9xPvFPWPjA8Fi1b-13">
          <mxGeometry x="1" width="20" height="20" relative="1" as="geometry">
            <mxPoint x="-27" y="7" as="offset" />
          </mxGeometry>
        </mxCell>
        <mxCell id="RwJon9xPvFPWPjA8Fi1b-15" value="MYSQL" style="verticalAlign=top;align=left;spacingTop=8;spacingLeft=2;spacingRight=12;shape=cube;size=10;direction=south;fontStyle=4;html=1;rounded=0;shadow=0;comic=0;labelBackgroundColor=none;strokeWidth=1;fontFamily=Verdana;fontSize=12" vertex="1" parent="1">
          <mxGeometry x="970" y="-100" width="330" height="220" as="geometry" />
        </mxCell>
        <mxCell id="RwJon9xPvFPWPjA8Fi1b-16" value="" style="shape=providedRequiredInterface;html=1;verticalLabelPosition=bottom;sketch=0;" vertex="1" parent="1">
          <mxGeometry x="980" y="90" width="20" height="20" as="geometry" />
        </mxCell>
        <mxCell id="RwJon9xPvFPWPjA8Fi1b-17" value="" style="endArrow=classic;html=1;rounded=0;entryX=0;entryY=0.5;entryDx=0;entryDy=0;entryPerimeter=0;" edge="1" parent="1" source="RwJon9xPvFPWPjA8Fi1b-3" target="RwJon9xPvFPWPjA8Fi1b-16">
          <mxGeometry width="50" height="50" relative="1" as="geometry">
            <mxPoint x="870" y="310" as="sourcePoint" />
            <mxPoint x="1002" y="392" as="targetPoint" />
          </mxGeometry>
        </mxCell>
        <mxCell id="RwJon9xPvFPWPjA8Fi1b-18" value="«interface»&lt;br&gt;Gestión Datos Usuario" style="html=1;rounded=0;shadow=0;comic=0;labelBackgroundColor=none;strokeWidth=1;fontFamily=Verdana;fontSize=12;align=center;" vertex="1" parent="1">
          <mxGeometry x="990" y="-60" width="130" height="50" as="geometry" />
        </mxCell>
        <mxCell id="RwJon9xPvFPWPjA8Fi1b-19" style="edgeStyle=orthogonalEdgeStyle;rounded=0;orthogonalLoop=1;jettySize=auto;html=1;exitX=0;exitY=0.5;exitDx=0;exitDy=0;entryX=0.5;entryY=1;entryDx=0;entryDy=0;dashed=1;" edge="1" parent="1" source="RwJon9xPvFPWPjA8Fi1b-20" target="RwJon9xPvFPWPjA8Fi1b-18">
          <mxGeometry relative="1" as="geometry" />
        </mxCell>
        <mxCell id="RwJon9xPvFPWPjA8Fi1b-20" value="«Componentes»&lt;br&gt;Data base Usuarios" style="html=1;dropTarget=0;whiteSpace=wrap;" vertex="1" parent="1">
          <mxGeometry x="1120" y="30" width="140" height="50" as="geometry" />
        </mxCell>
        <mxCell id="RwJon9xPvFPWPjA8Fi1b-21" value="" style="shape=module;jettyWidth=8;jettyHeight=4;" vertex="1" parent="RwJon9xPvFPWPjA8Fi1b-20">
          <mxGeometry x="1" width="20" height="20" relative="1" as="geometry">
            <mxPoint x="-27" y="7" as="offset" />
          </mxGeometry>
        </mxCell>
        <mxCell id="RwJon9xPvFPWPjA8Fi1b-22" value="" style="endArrow=classic;html=1;rounded=0;entryX=0.423;entryY=1.006;entryDx=0;entryDy=0;entryPerimeter=0;exitX=0.85;exitY=-0.006;exitDx=0;exitDy=0;exitPerimeter=0;" edge="1" parent="1" source="RwJon9xPvFPWPjA8Fi1b-2" target="RwJon9xPvFPWPjA8Fi1b-10">
          <mxGeometry width="50" height="50" relative="1" as="geometry">
            <mxPoint x="870" y="244" as="sourcePoint" />
            <mxPoint x="980" y="280" as="targetPoint" />
          </mxGeometry>
        </mxCell>
        <mxCell id="RwJon9xPvFPWPjA8Fi1b-23" value="MYSQL" style="verticalAlign=top;align=left;spacingTop=8;spacingLeft=2;spacingRight=12;shape=cube;size=10;direction=south;fontStyle=4;html=1;rounded=0;shadow=0;comic=0;labelBackgroundColor=none;strokeWidth=1;fontFamily=Verdana;fontSize=12" vertex="1" parent="1">
          <mxGeometry x="1000" y="465" width="330" height="335" as="geometry" />
        </mxCell>
        <mxCell id="RwJon9xPvFPWPjA8Fi1b-24" value="«interface»&lt;br&gt;Almacenamiento &lt;br&gt;Reclamos o Queja" style="html=1;rounded=0;shadow=0;comic=0;labelBackgroundColor=none;strokeWidth=1;fontFamily=Verdana;fontSize=12;align=center;" vertex="1" parent="1">
          <mxGeometry x="1020" y="515" width="110" height="50" as="geometry" />
        </mxCell>
        <mxCell id="RwJon9xPvFPWPjA8Fi1b-25" value="«Componentes»&lt;br&gt;Tratamiento de queja" style="html=1;dropTarget=0;whiteSpace=wrap;" vertex="1" parent="1">
          <mxGeometry x="1160" y="605" width="140" height="50" as="geometry" />
        </mxCell>
        <mxCell id="RwJon9xPvFPWPjA8Fi1b-26" value="" style="shape=module;jettyWidth=8;jettyHeight=4;" vertex="1" parent="RwJon9xPvFPWPjA8Fi1b-25">
          <mxGeometry x="1" width="20" height="20" relative="1" as="geometry">
            <mxPoint x="-27" y="7" as="offset" />
          </mxGeometry>
        </mxCell>
        <mxCell id="RwJon9xPvFPWPjA8Fi1b-27" value="" style="shape=providedRequiredInterface;html=1;verticalLabelPosition=bottom;sketch=0;" vertex="1" parent="1">
          <mxGeometry x="1010" y="655" width="20" height="20" as="geometry" />
        </mxCell>
        <mxCell id="RwJon9xPvFPWPjA8Fi1b-28" style="edgeStyle=orthogonalEdgeStyle;rounded=0;orthogonalLoop=1;jettySize=auto;html=1;exitX=0;exitY=0.5;exitDx=0;exitDy=0;entryX=0.5;entryY=1;entryDx=0;entryDy=0;dashed=1;" edge="1" parent="1">
          <mxGeometry relative="1" as="geometry">
            <mxPoint x="1160" y="630" as="sourcePoint" />
            <mxPoint x="1105" y="565" as="targetPoint" />
          </mxGeometry>
        </mxCell>
        <mxCell id="RwJon9xPvFPWPjA8Fi1b-29" value="" style="endArrow=classic;html=1;rounded=0;entryX=0;entryY=0.5;entryDx=0;entryDy=0;entryPerimeter=0;" edge="1" parent="1" target="RwJon9xPvFPWPjA8Fi1b-27">
          <mxGeometry width="50" height="50" relative="1" as="geometry">
            <mxPoint x="870" y="70" as="sourcePoint" />
            <mxPoint x="990" y="290" as="targetPoint" />
          </mxGeometry>
        </mxCell>
        <mxCell id="RwJon9xPvFPWPjA8Fi1b-30" value="" style="endArrow=classic;html=1;rounded=0;entryX=0.4;entryY=0.54;entryDx=0;entryDy=0;entryPerimeter=0;" edge="1" parent="1" source="RwJon9xPvFPWPjA8Fi1b-10" target="RwJon9xPvFPWPjA8Fi1b-27">
          <mxGeometry width="50" height="50" relative="1" as="geometry">
            <mxPoint x="890" y="379" as="sourcePoint" />
            <mxPoint x="1000" y="415" as="targetPoint" />
          </mxGeometry>
        </mxCell>
        <mxCell id="0Pzjb5t6tNHKpmDrIg3F-1" value="ADMIN" style="verticalAlign=top;align=left;spacingTop=8;spacingLeft=2;spacingRight=12;shape=cube;size=10;direction=south;fontStyle=4;html=1;rounded=0;shadow=0;comic=0;labelBackgroundColor=none;strokeWidth=1;fontFamily=Verdana;fontSize=12" vertex="1" parent="1">
          <mxGeometry x="520" y="190" width="330" height="220" as="geometry" />
        </mxCell>
        <mxCell id="0Pzjb5t6tNHKpmDrIg3F-2" value="«Interface»&lt;br&gt;Proyectos y eventos&amp;nbsp;" style="html=1;rounded=0;shadow=0;comic=0;labelBackgroundColor=none;strokeWidth=1;fontFamily=Verdana;fontSize=12;align=center;" vertex="1" parent="1">
          <mxGeometry x="540" y="240" width="130" height="50" as="geometry" />
        </mxCell>
        <mxCell id="0Pzjb5t6tNHKpmDrIg3F-3" value="«Componentes»&lt;br&gt;Ingresos de eventos y proyectos&amp;nbsp;" style="html=1;dropTarget=0;whiteSpace=wrap;" vertex="1" parent="1">
          <mxGeometry x="615" y="320" width="200" height="50" as="geometry" />
        </mxCell>
        <mxCell id="0Pzjb5t6tNHKpmDrIg3F-4" value="" style="shape=module;jettyWidth=8;jettyHeight=4;" vertex="1" parent="0Pzjb5t6tNHKpmDrIg3F-3">
          <mxGeometry x="1" width="20" height="20" relative="1" as="geometry">
            <mxPoint x="-27" y="7" as="offset" />
          </mxGeometry>
        </mxCell>
        <mxCell id="0Pzjb5t6tNHKpmDrIg3F-5" style="edgeStyle=orthogonalEdgeStyle;rounded=0;orthogonalLoop=1;jettySize=auto;html=1;exitX=0;exitY=0.5;exitDx=0;exitDy=0;entryX=0.25;entryY=1;entryDx=0;entryDy=0;dashed=1;" edge="1" parent="1" source="0Pzjb5t6tNHKpmDrIg3F-3" target="0Pzjb5t6tNHKpmDrIg3F-2">
          <mxGeometry relative="1" as="geometry">
            <mxPoint x="160" y="290" as="sourcePoint" />
            <mxPoint x="95" y="225" as="targetPoint" />
          </mxGeometry>
        </mxCell>
        <mxCell id="0Pzjb5t6tNHKpmDrIg3F-6" style="edgeStyle=orthogonalEdgeStyle;rounded=0;orthogonalLoop=1;jettySize=auto;html=1;entryX=1;entryY=0.5;entryDx=0;entryDy=0;entryPerimeter=0;" edge="1" parent="1" source="RwJon9xPvFPWPjA8Fi1b-3" target="0Pzjb5t6tNHKpmDrIg3F-7">
          <mxGeometry relative="1" as="geometry">
            <Array as="points">
              <mxPoint x="705" y="180" />
              <mxPoint x="870" y="180" />
              <mxPoint x="870" y="380" />
            </Array>
          </mxGeometry>
        </mxCell>
        <mxCell id="0Pzjb5t6tNHKpmDrIg3F-7" value="" style="shape=providedRequiredInterface;html=1;verticalLabelPosition=bottom;sketch=0;" vertex="1" parent="1">
          <mxGeometry x="820" y="370" width="20" height="20" as="geometry" />
        </mxCell>
        <mxCell id="0Pzjb5t6tNHKpmDrIg3F-8" style="edgeStyle=orthogonalEdgeStyle;rounded=0;orthogonalLoop=1;jettySize=auto;html=1;entryX=1;entryY=1;entryDx=0;entryDy=0;entryPerimeter=0;" edge="1" parent="1" source="RwJon9xPvFPWPjA8Fi1b-10" target="0Pzjb5t6tNHKpmDrIg3F-7">
          <mxGeometry relative="1" as="geometry" />
        </mxCell>
        <mxCell id="GfAO7DPvSBU3mHOuXdMA-1" value="«interface»&lt;br&gt;Inicio Situación de&amp;nbsp;&lt;div&gt;Riesgo&lt;/div&gt;" style="html=1;rounded=0;shadow=0;comic=0;labelBackgroundColor=none;strokeWidth=1;fontFamily=Verdana;fontSize=12;align=center;" vertex="1" parent="1">
          <mxGeometry x="580" y="670" width="120" height="50" as="geometry" />
        </mxCell>
        <mxCell id="GfAO7DPvSBU3mHOuXdMA-3" value="«Componentes»&lt;br&gt;Reporte de situación" style="html=1;dropTarget=0;whiteSpace=wrap;" vertex="1" parent="1">
          <mxGeometry x="700" y="750" width="140" height="50" as="geometry" />
        </mxCell>
        <mxCell id="GfAO7DPvSBU3mHOuXdMA-4" value="" style="shape=module;jettyWidth=8;jettyHeight=4;" vertex="1" parent="GfAO7DPvSBU3mHOuXdMA-3">
          <mxGeometry x="1" width="20" height="20" relative="1" as="geometry">
            <mxPoint x="-27" y="7" as="offset" />
          </mxGeometry>
        </mxCell>
        <mxCell id="GfAO7DPvSBU3mHOuXdMA-5" style="edgeStyle=orthogonalEdgeStyle;rounded=0;orthogonalLoop=1;jettySize=auto;html=1;exitX=0;exitY=0.5;exitDx=0;exitDy=0;entryX=0.5;entryY=1;entryDx=0;entryDy=0;dashed=1;" edge="1" parent="1">
          <mxGeometry relative="1" as="geometry">
            <mxPoint x="700" y="775" as="sourcePoint" />
            <mxPoint x="645" y="720" as="targetPoint" />
          </mxGeometry>
        </mxCell>
        <mxCell id="GfAO7DPvSBU3mHOuXdMA-6" value="«Componentes»&lt;br&gt;Publicación de Situación" style="html=1;dropTarget=0;whiteSpace=wrap;" vertex="1" parent="1">
          <mxGeometry x="1171" y="720" width="140" height="50" as="geometry" />
        </mxCell>
        <mxCell id="GfAO7DPvSBU3mHOuXdMA-7" value="" style="shape=module;jettyWidth=8;jettyHeight=4;" vertex="1" parent="GfAO7DPvSBU3mHOuXdMA-6">
          <mxGeometry x="1" width="20" height="20" relative="1" as="geometry">
            <mxPoint x="-27" y="7" as="offset" />
          </mxGeometry>
        </mxCell>
        <mxCell id="GfAO7DPvSBU3mHOuXdMA-8" value="«interface»&lt;br&gt;Almacenamiento de&lt;div&gt;&amp;nbsp;Situaciones&lt;/div&gt;" style="html=1;rounded=0;shadow=0;comic=0;labelBackgroundColor=none;strokeWidth=1;fontFamily=Verdana;fontSize=12;align=center;" vertex="1" parent="1">
          <mxGeometry x="1030" y="675" width="120" height="50" as="geometry" />
        </mxCell>
        <mxCell id="GfAO7DPvSBU3mHOuXdMA-9" style="edgeStyle=orthogonalEdgeStyle;rounded=0;orthogonalLoop=1;jettySize=auto;html=1;exitX=0;exitY=0.5;exitDx=0;exitDy=0;dashed=1;entryX=0.5;entryY=1;entryDx=0;entryDy=0;" edge="1" parent="1" target="GfAO7DPvSBU3mHOuXdMA-8">
          <mxGeometry relative="1" as="geometry">
            <mxPoint x="1175" y="749.5" as="sourcePoint" />
            <mxPoint x="1120" y="684.5" as="targetPoint" />
            <Array as="points" />
          </mxGeometry>
        </mxCell>
      </root>
    </mxGraphModel>
  </diagram>
</mxfile>
